<svg width="35" height="35" viewBox="0 0 35 35" fill="none" xmlns="http://www.w3.org/2000/svg">
<g id="add_circle" opacity="0.8">
<mask id="mask0_2236_356" style="mask-type:alpha" maskUnits="userSpaceOnUse" x="0" y="0" width="35" height="35">
<rect id="Bounding box" width="35" height="35" fill="#D9D9D9"/>
</mask>
<g mask="url(#mask0_2236_356)">
<path id="add_circle_2" d="M16.3578 24.7918H18.7881V18.8126H24.7917V16.3819H18.7881V10.2084H16.3578V16.3819H10.2083V18.8126H16.3578V24.7918ZM17.5066 32.0834C15.4933 32.0834 13.6015 31.7006 11.8311 30.935C10.0607 30.1694 8.51509 29.1263 7.19432 27.8058C5.8738 26.485 4.83073 24.9388 4.0651 23.1672C3.29948 21.3955 2.91667 19.5025 2.91667 17.4881C2.91667 15.4736 3.29948 13.5804 4.0651 11.8086C4.83073 10.0369 5.8738 8.49487 7.19432 7.18237C8.51509 5.86987 10.0613 4.83081 11.8329 4.06519C13.6045 3.29956 15.4976 2.91675 17.512 2.91675C19.5265 2.91675 21.4196 3.29956 23.1915 4.06519C24.9631 4.83081 26.5052 5.86987 27.8177 7.18237C29.1302 8.49487 30.1693 10.0383 30.9349 11.8126C31.7005 13.5869 32.0833 15.4805 32.0833 17.4935C32.0833 19.5068 31.7005 21.3986 30.9349 23.169C30.1693 24.9394 29.1302 26.4834 27.8177 27.801C26.5052 29.1186 24.9618 30.1618 23.1875 30.9306C21.4132 31.6991 19.5195 32.0834 17.5066 32.0834Z" fill="#1C1B1F"/>
</g>
</g>
</svg>
