<?xml version="1.0" encoding="utf-8"?>
<!-- Generator: Adobe Illustrator 27.0.0, SVG Export Plug-In . SVG Version: 6.00 Build 0)  -->
<svg version="1.1" id="圖層_1" xmlns="http://www.w3.org/2000/svg" xmlns:xlink="http://www.w3.org/1999/xlink" x="0px" y="0px"
	 viewBox="0 0 35 35" style="enable-background:new 0 0 35 35;" xml:space="preserve">
<style type="text/css">
	.st0{fill:#D9D9D9;filter:url(#Adobe_OpacityMaskFilter);}
	.st1{mask:url(#mask0_2241_415_00000031189491851804378320000017794232888947910016_);}
	.st2{fill:#1C1B1F;}
</style>
<g>
	<defs>
		<filter id="Adobe_OpacityMaskFilter" filterUnits="userSpaceOnUse" x="2.9" y="2.9" width="29.2" height="29.2">
			<feColorMatrix  type="matrix" values="1 0 0 0 0  0 1 0 0 0  0 0 1 0 0  0 0 0 1 0"/>
		</filter>
	</defs>
	
		<mask maskUnits="userSpaceOnUse" x="2.9" y="2.9" width="29.2" height="29.2" id="mask0_2241_415_00000031189491851804378320000017794232888947910016_">
		<rect class="st0" width="35" height="35"/>
	</mask>
	<g class="st1">
		<path class="st2" d="M16.4,24.8h2.4v-6h6v-2.4h-6v-6.2h-2.4v6.2h-6.1v2.4h6.1V24.8z M17.5,32.1c-2,0-3.9-0.4-5.7-1.1
			s-3.3-1.8-4.6-3.1c-1.3-1.3-2.4-2.9-3.1-4.6c-0.8-1.8-1.1-3.7-1.1-5.7c0-2,0.4-3.9,1.1-5.7C4.8,10,5.9,8.5,7.2,7.2
			c1.3-1.3,2.9-2.4,4.6-3.1c1.8-0.8,3.7-1.1,5.7-1.1c2,0,3.9,0.4,5.7,1.1c1.8,0.8,3.3,1.8,4.6,3.1s2.4,2.9,3.1,4.6s1.1,3.7,1.1,5.7
			c0,2-0.4,3.9-1.1,5.7c-0.8,1.8-1.8,3.3-3.1,4.6s-2.9,2.4-4.6,3.1C21.4,31.7,19.5,32.1,17.5,32.1z M17.5,29.7
			c3.4,0,6.2-1.2,8.6-3.5c2.4-2.4,3.5-5.2,3.5-8.6c0-3.4-1.2-6.2-3.5-8.6c-2.4-2.4-5.2-3.5-8.6-3.5c-3.4,0-6.2,1.2-8.6,3.5
			c-2.4,2.4-3.5,5.2-3.5,8.6c0,3.4,1.2,6.2,3.5,8.6C11.3,28.5,14.1,29.7,17.5,29.7z"/>
	</g>
</g>
</svg>
