<svg width="35" height="35" viewBox="0 0 35 35" fill="none" xmlns="http://www.w3.org/2000/svg">
<g opacity="0.8">
<mask id="mask0_2241_373" style="mask-type:alpha" maskUnits="userSpaceOnUse" x="0" y="0" width="35" height="35">
<rect width="35" height="35" fill="#D9D9D9"/>
</mask>
<g mask="url(#mask0_2241_373)">
<path d="M17.5 20.4167C17.0868 20.4167 16.7405 20.277 16.4609 19.9975C16.1814 19.718 16.0417 19.3716 16.0417 18.9584C16.0417 18.5452 16.1814 18.1989 16.4609 17.9194C16.7405 17.6398 17.0868 17.5001 17.5 17.5001C17.9132 17.5001 18.2595 17.6398 18.5391 17.9194C18.8186 18.1989 18.9583 18.5452 18.9583 18.9584C18.9583 19.3716 18.8186 19.718 18.5391 19.9975C18.2595 20.277 17.9132 20.4167 17.5 20.4167ZM11.6667 20.4167C11.2535 20.4167 10.9071 20.277 10.6276 19.9975C10.3481 19.718 10.2083 19.3716 10.2083 18.9584C10.2083 18.5452 10.3481 18.1989 10.6276 17.9194C10.9071 17.6398 11.2535 17.5001 11.6667 17.5001C12.0799 17.5001 12.4262 17.6398 12.7057 17.9194C12.9852 18.1989 13.125 18.5452 13.125 18.9584C13.125 19.3716 12.9852 19.718 12.7057 19.9975C12.4262 20.277 12.0799 20.4167 11.6667 20.4167ZM23.3333 20.4167C22.9201 20.4167 22.5738 20.277 22.2943 19.9975C22.0148 19.718 21.875 19.3716 21.875 18.9584C21.875 18.5452 22.0148 18.1989 22.2943 17.9194C22.5738 17.6398 22.9201 17.5001 23.3333 17.5001C23.7465 17.5001 24.0929 17.6398 24.3724 17.9194C24.6519 18.1989 24.7917 18.5452 24.7917 18.9584C24.7917 19.3716 24.6519 19.718 24.3724 19.9975C24.0929 20.277 23.7465 20.4167 23.3333 20.4167ZM17.5 26.2501C17.0868 26.2501 16.7405 26.1103 16.4609 25.8308C16.1814 25.5513 16.0417 25.2049 16.0417 24.7918C16.0417 24.3786 16.1814 24.0322 16.4609 23.7527C16.7405 23.4732 17.0868 23.3334 17.5 23.3334C17.9132 23.3334 18.2595 23.4732 18.5391 23.7527C18.8186 24.0322 18.9583 24.3786 18.9583 24.7918C18.9583 25.2049 18.8186 25.5513 18.5391 25.8308C18.2595 26.1103 17.9132 26.2501 17.5 26.2501ZM11.6667 26.2501C11.2535 26.2501 10.9071 26.1103 10.6276 25.8308C10.3481 25.5513 10.2083 25.2049 10.2083 24.7918C10.2083 24.3786 10.3481 24.0322 10.6276 23.7527C10.9071 23.4732 11.2535 23.3334 11.6667 23.3334C12.0799 23.3334 12.4262 23.4732 12.7057 23.7527C12.9852 24.0322 13.125 24.3786 13.125 24.7918C13.125 25.2049 12.9852 25.5513 12.7057 25.8308C12.4262 26.1103 12.0799 26.2501 11.6667 26.2501ZM23.3333 26.2501C22.9201 26.2501 22.5738 26.1103 22.2943 25.8308C22.0148 25.5513 21.875 25.2049 21.875 24.7918C21.875 24.3786 22.0148 24.0322 22.2943 23.7527C22.5738 23.4732 22.9201 23.3334 23.3333 23.3334C23.7465 23.3334 24.0929 23.4732 24.3724 23.7527C24.6519 24.0322 24.7917 24.3786 24.7917 24.7918C24.7917 25.2049 24.6519 25.5513 24.3724 25.8308C24.0929 26.1103 23.7465 26.2501 23.3333 26.2501ZM6.80568 32.0834C6.14943 32.0834 5.58019 31.8424 5.09797 31.3604C4.61599 30.8782 4.375 30.309 4.375 29.6527V7.77774C4.375 7.12149 4.61599 6.55237 5.09797 6.07039C5.58019 5.58841 6.14943 5.34742 6.80568 5.34742H8.87141V2.91675H11.4235V5.34742H23.5765V2.91675H26.1286V5.34742H28.1943C28.8506 5.34742 29.4198 5.58841 29.902 6.07039C30.384 6.55237 30.625 7.12149 30.625 7.77774V29.6527C30.625 30.309 30.384 30.8782 29.902 31.3604C29.4198 31.8424 28.8506 32.0834 28.1943 32.0834H6.80568ZM6.80568 29.6527H28.1943V14.3402H6.80568V29.6527Z" fill="#1C1B1F"/>
</g>
</g>
</svg>
