<svg width="35" height="35" viewBox="0 0 35 35" fill="none" xmlns="http://www.w3.org/2000/svg">
<g opacity="0.8">
<mask id="mask0_2241_397" style="mask-type:alpha" maskUnits="userSpaceOnUse" x="0" y="0" width="35" height="35">
<rect width="35" height="35" fill="#D9D9D9"/>
</mask>
<g mask="url(#mask0_2241_397)">
<path d="M8.38542 32.0834C7.27149 32.0834 6.32455 31.6936 5.54458 30.9138C4.76486 30.1339 4.375 29.1869 4.375 28.073V23.3334H8.75V2.91675H30.625V28.073C30.625 29.1869 30.2351 30.1339 29.4554 30.9138C28.6755 31.6936 27.7285 32.0834 26.6146 32.0834H8.38542ZM26.6124 29.6527C27.0594 29.6527 27.4348 29.5014 27.7386 29.1988C28.0424 28.896 28.1943 28.5207 28.1943 28.073V5.34742H11.1807V23.3334H25.0348V28.073C25.0348 28.5207 25.186 28.896 25.4884 29.1988C25.7907 29.5014 26.1654 29.6527 26.6124 29.6527ZM13.125 12.1527V9.72243H26.25V12.1527H13.125ZM13.125 16.5277V14.0974H26.25V16.5277H13.125Z" fill="#1C1B1F"/>
</g>
</g>
</svg>
