<svg width="40" height="40" viewBox="0 0 40 40" fill="none" xmlns="http://www.w3.org/2000/svg">
<mask id="mask0_12_122" style="mask-type:alpha" maskUnits="userSpaceOnUse" x="0" y="0" width="40" height="40">
<rect width="40" height="40" fill="#D9D9D9"/>
</mask>
<g mask="url(#mask0_12_122)">
<path d="M9.58333 36.6667C8.31028 36.6667 7.22806 36.2211 6.33667 35.33C5.44556 34.4386 5 33.3564 5 32.0833V26.6667H10V3.33333H35V32.0833C35 33.3564 34.5544 34.4386 33.6633 35.33C32.7719 36.2211 31.6897 36.6667 30.4167 36.6667H9.58333ZM30.4142 33.8888C30.925 33.8888 31.354 33.7158 31.7013 33.37C32.0485 33.0239 32.2221 32.595 32.2221 32.0833V6.11125H12.7779V26.6667H28.6112V32.0833C28.6112 32.595 28.784 33.0239 29.1296 33.37C29.4751 33.7158 29.9033 33.8888 30.4142 33.8888ZM15 13.8888V11.1112H30V13.8888H15ZM15 18.8888V16.1112H30V18.8888H15ZM9.55542 33.8888H25.8333V29.4446H7.77792V32.0833C7.77792 32.595 7.95153 33.0239 8.29875 33.37C8.64597 33.7158 9.06486 33.8888 9.55542 33.8888ZM9.55542 33.8888H7.77792H25.8333H9.55542Z" fill="#828282"/>
</g>
</svg>
