<svg width="35" height="35" viewBox="0 0 35 35" fill="none" xmlns="http://www.w3.org/2000/svg">
<g opacity="0.8">
<mask id="mask0_2241_391" style="mask-type:alpha" maskUnits="userSpaceOnUse" x="0" y="0" width="35" height="35">
<rect width="35" height="35" fill="#D9D9D9"/>
</mask>
<g mask="url(#mask0_2241_391)">
<path d="M6.80568 30.625C6.14943 30.625 5.58019 30.384 5.09797 29.902C4.61599 29.4198 4.375 28.8506 4.375 28.1943V6.80568C4.375 6.14943 4.61599 5.58019 5.09797 5.09797C5.58019 4.61599 6.14943 4.375 6.80568 4.375H28.1943C28.8506 4.375 29.4198 4.61599 29.902 5.09797C30.384 5.58019 30.625 6.14943 30.625 6.80568V28.1943C30.625 28.8506 30.384 29.4198 29.902 29.902C29.4198 30.384 28.8506 30.625 28.1943 30.625H6.80568ZM6.80568 6.80568V28.1943H28.1943V6.80568H24.6943V16.9896L21.0973 14.8265L17.5 16.9896V6.80568H6.80568Z" fill="#1C1B1F"/>
</g>
</g>
</svg>
