<svg width="40" height="40" viewBox="0 0 40 40" fill="none" xmlns="http://www.w3.org/2000/svg">
<mask id="mask0_12_140" style="mask-type:alpha" maskUnits="userSpaceOnUse" x="0" y="0" width="40" height="40">
<rect width="40" height="40" fill="#D9D9D9"/>
</mask>
<g mask="url(#mask0_12_140)">
<path d="M18.6946 28.3333H21.4721V18.3333H18.6946V28.3333ZM19.9996 15.1667C20.4165 15.1667 20.7663 15.0282 21.0488 14.7513C21.331 14.4746 21.4721 14.1315 21.4721 13.7221C21.4721 13.2971 21.3311 12.9408 21.0492 12.6533C20.767 12.3658 20.4174 12.2221 20.0004 12.2221C19.5835 12.2221 19.2338 12.3658 18.9513 12.6533C18.669 12.9408 18.5279 13.2971 18.5279 13.7221C18.5279 14.1315 18.6689 14.4746 18.9508 14.7513C19.2331 15.0282 19.5827 15.1667 19.9996 15.1667ZM20.0075 36.6667C17.7067 36.6667 15.5446 36.2292 13.5213 35.3542C11.4979 34.4792 9.73154 33.2871 8.22209 31.7779C6.71293 30.2685 5.52084 28.5014 4.64584 26.4767C3.77084 24.4519 3.33334 22.2885 3.33334 19.9863C3.33334 17.684 3.77084 15.5204 4.64584 13.4954C5.52084 11.4707 6.71293 9.70833 8.22209 8.20833C9.73154 6.70833 11.4986 5.52083 13.5233 4.64583C15.5481 3.77083 17.7115 3.33333 20.0138 3.33333C22.316 3.33333 24.4796 3.77083 26.5046 4.64583C28.5293 5.52083 30.2917 6.70833 31.7917 8.20833C33.2917 9.70833 34.4792 11.4722 35.3542 13.5C36.2292 15.5278 36.6667 17.6919 36.6667 19.9925C36.6667 22.2933 36.2292 24.4554 35.3542 26.4788C34.4792 28.5021 33.2917 30.2667 31.7917 31.7725C30.2917 33.2783 28.5278 34.4706 26.5 35.3492C24.4722 36.2275 22.3081 36.6667 20.0075 36.6667ZM20.0138 33.8888C23.8749 33.8888 27.1527 32.5369 29.8471 29.8333C32.5415 27.1297 33.8888 23.8474 33.8888 19.9863C33.8888 16.1251 32.5433 12.8474 29.8525 10.1529C27.1614 7.45847 23.8772 6.11125 20 6.11125C16.1481 6.11125 12.8703 7.45667 10.1667 10.1475C7.46307 12.8386 6.11126 16.1228 6.11126 20C6.11126 23.8519 7.46307 27.1297 10.1667 29.8333C12.8703 32.5369 16.1526 33.8888 20.0138 33.8888Z" fill="#828282"/>
</g>
</svg>
