<svg width="35" height="35" viewBox="0 0 35 35" fill="none" xmlns="http://www.w3.org/2000/svg">
<g opacity="0.8">
<mask id="mask0_2241_403" style="mask-type:alpha" maskUnits="userSpaceOnUse" x="0" y="0" width="35" height="35">
<rect width="35" height="35" fill="#D9D9D9"/>
</mask>
<g mask="url(#mask0_2241_403)">
<path d="M16.3578 24.7918H18.7881V16.0417H16.3578V24.7918ZM17.4996 13.2709C17.8645 13.2709 18.1705 13.1498 18.4176 12.9074C18.6646 12.6653 18.7881 12.3652 18.7881 12.0069C18.7881 11.635 18.6647 11.3233 18.418 11.0717C18.1711 10.8202 17.8652 10.6944 17.5004 10.6944C17.1355 10.6944 16.8295 10.8202 16.5823 11.0717C16.3354 11.3233 16.2119 11.635 16.2119 12.0069C16.2119 12.3652 16.3353 12.6653 16.582 12.9074C16.8289 13.1498 17.1348 13.2709 17.4996 13.2709ZM17.5066 32.0834C15.4933 32.0834 13.6015 31.7006 11.8311 30.935C10.0607 30.1694 8.51508 29.1263 7.19431 27.8058C5.87379 26.485 4.83072 24.9388 4.06509 23.1672C3.29947 21.3955 2.91666 19.5025 2.91666 17.4881C2.91666 15.4736 3.29947 13.5804 4.06509 11.8086C4.83072 10.0369 5.87379 8.49487 7.19431 7.18237C8.51508 5.86987 10.0613 4.83081 11.8329 4.06519C13.6045 3.29956 15.4976 2.91675 17.512 2.91675C19.5265 2.91675 21.4196 3.29956 23.1915 4.06519C24.9631 4.83081 26.5052 5.86987 27.8177 7.18237C29.1302 8.49487 30.1693 10.0383 30.9349 11.8126C31.7005 13.5869 32.0833 15.4805 32.0833 17.4935C32.0833 19.5067 31.7005 21.3986 30.9349 23.169C30.1693 24.9394 29.1302 26.4834 27.8177 27.801C26.5052 29.1186 24.9618 30.1618 23.1875 30.9306C21.4132 31.6991 19.5195 32.0834 17.5066 32.0834Z" fill="#1C1B1F"/>
</g>
</g>
</svg>
