<svg width="35" height="35" viewBox="0 0 35 35" fill="none" xmlns="http://www.w3.org/2000/svg">
<g opacity="0.8">
<mask id="mask0_2236_350" style="mask-type:alpha" maskUnits="userSpaceOnUse" x="0" y="0" width="35" height="35">
<rect width="35" height="35" fill="#D9D9D9"/>
</mask>
<g mask="url(#mask0_2236_350)">
<path d="M13.9271 32.0834L13.2464 27.4652C12.8332 27.3114 12.4099 27.1089 11.9766 26.8578C11.5432 26.6065 11.1522 26.3432 10.8037 26.0678L6.48959 27.9881L2.89224 21.6928L6.76922 18.8246C6.72863 18.6221 6.70433 18.4015 6.69631 18.1625C6.68804 17.9234 6.68391 17.7025 6.68391 17.5001C6.68391 17.2976 6.68804 17.0768 6.69631 16.8376C6.70433 16.5987 6.72863 16.378 6.76922 16.1756L2.89224 13.3074L6.48959 7.01211L10.8037 8.93237C11.1522 8.65699 11.5453 8.39364 11.9828 8.14232C12.4203 7.89125 12.8415 7.6968 13.2464 7.55899L13.9271 2.91675H21.0729L21.7536 7.53492C22.1668 7.68878 22.5941 7.88723 23.0355 8.13029C23.4771 8.37335 23.864 8.64071 24.1963 8.93237L28.5104 7.01211L32.1078 13.3074L28.2308 16.1267C28.2714 16.3454 28.2957 16.5744 28.3037 16.8136C28.312 17.0525 28.3161 17.2813 28.3161 17.5001C28.3161 17.7188 28.312 17.9437 28.3037 18.1746C28.2957 18.4055 28.2674 18.6303 28.2188 18.849L32.0954 21.6928L28.4984 27.9881L24.1963 26.0678C23.8478 26.3432 23.4589 26.6105 23.0296 26.8699C22.6002 27.1292 22.1748 27.3277 21.7536 27.4652L21.0729 32.0834H13.9271ZM17.5244 22.3611C18.8693 22.3611 20.0156 21.8871 20.9635 20.9392C21.9115 19.9913 22.3854 18.8449 22.3854 17.5001C22.3854 16.1553 21.9115 15.0089 20.9635 14.061C20.0156 13.1131 18.8693 12.6391 17.5244 12.6391C16.1713 12.6391 15.0229 13.1131 14.0791 14.061C13.1351 15.0089 12.6631 16.1553 12.6631 17.5001C12.6631 18.8449 13.1351 19.9913 14.0791 20.9392C15.0229 21.8871 16.1713 22.3611 17.5244 22.3611Z" fill="#1C1B1F"/>
</g>
</g>
</svg>
