<svg width="40" height="40" viewBox="0 0 40 40" fill="none" xmlns="http://www.w3.org/2000/svg">
<mask id="mask0_12_159" style="mask-type:alpha" maskUnits="userSpaceOnUse" x="0" y="0" width="40" height="40">
<rect width="40" height="40" fill="#D9D9D9"/>
</mask>
<g mask="url(#mask0_12_159)">
<path d="M15.9167 36.6667L15.1388 31.3888C14.6665 31.2129 14.1828 30.9815 13.6875 30.6946C13.1922 30.4074 12.7454 30.1064 12.3471 29.7917L7.41667 31.9863L3.30542 24.7917L7.73625 21.5138C7.68986 21.2824 7.66209 21.0301 7.65292 20.7571C7.64348 20.4838 7.63875 20.2314 7.63875 20C7.63875 19.7686 7.64348 19.5163 7.65292 19.2429C7.66209 18.9699 7.68986 18.7176 7.73625 18.4862L3.30542 15.2083L7.41667 8.01375L12.3471 10.2083C12.7454 9.89361 13.1946 9.59264 13.6946 9.30542C14.1946 9.01847 14.676 8.79625 15.1388 8.63875L15.9167 3.33333H24.0833L24.8613 8.61125C25.3335 8.78708 25.8218 9.01389 26.3263 9.29167C26.831 9.56944 27.2732 9.875 27.6529 10.2083L32.5833 8.01375L36.6946 15.2083L32.2638 18.4304C32.3101 18.6804 32.3379 18.9421 32.3471 19.2154C32.3565 19.4885 32.3613 19.75 32.3613 20C32.3613 20.25 32.3565 20.5069 32.3471 20.7708C32.3379 21.0347 32.3056 21.2917 32.25 21.5417L36.6804 24.7917L32.5696 31.9863L27.6529 29.7917C27.2546 30.1064 26.8101 30.4119 26.3196 30.7083C25.8288 31.0047 25.3426 31.2315 24.8613 31.3888L24.0833 36.6667H15.9167ZM18.2221 33.8888H21.7638L22.3471 29.3054C23.2454 29.0832 24.0904 28.7429 24.8821 28.2846C25.6738 27.8263 26.3936 27.2731 27.0417 26.625L31.3613 28.4721L33.0138 25.5279L29.2083 22.7083C29.3286 22.2639 29.4213 21.8171 29.4863 21.3679C29.551 20.919 29.5833 20.4631 29.5833 20C29.5833 19.5369 29.5556 19.081 29.5 18.6321C29.4445 18.1829 29.3472 17.7361 29.2083 17.2917L33.0138 14.4721L31.3613 11.5279L27.0417 13.3888C26.4119 12.6943 25.706 12.1133 24.9238 11.6458C24.1413 11.1783 23.2824 10.8612 22.3471 10.6946L21.7779 6.11125H18.2363L17.6529 10.6946C16.7363 10.8982 15.8821 11.2292 15.0904 11.6875C14.2988 12.1458 13.5881 12.7083 12.9583 13.375L8.63875 11.5279L6.98625 14.4721L10.7917 17.2779C10.6714 17.7315 10.5788 18.1806 10.5138 18.625C10.449 19.0694 10.4167 19.5278 10.4167 20C10.4167 20.4631 10.449 20.9168 10.5138 21.3613C10.5788 21.8057 10.6714 22.2547 10.7917 22.7083L6.98625 25.5279L8.63875 28.4721L12.9583 26.6113C13.6064 27.2685 14.3263 27.8263 15.1179 28.2846C15.9096 28.7429 16.7546 29.0832 17.6529 29.3054L18.2221 33.8888ZM20.0279 25.5554C21.5649 25.5554 22.875 25.0138 23.9583 23.9304C25.0417 22.8471 25.5833 21.5369 25.5833 20C25.5833 18.4631 25.0417 17.1529 23.9583 16.0696C22.875 14.9862 21.5649 14.4446 20.0279 14.4446C18.4815 14.4446 17.169 14.9862 16.0904 16.0696C15.0115 17.1529 14.4721 18.4631 14.4721 20C14.4721 21.5369 15.0115 22.8471 16.0904 23.9304C17.169 25.0138 18.4815 25.5554 20.0279 25.5554Z" fill="#828282"/>
</g>
</svg>
